<?xml version="1.0" standalone="no"?>
<!DOCTYPE svg PUBLIC "-//W3C//DTD SVG 20010904//EN"
 "http://www.w3.org/TR/2001/REC-SVG-20010904/DTD/svg10.dtd">
<svg version="1.0" xmlns="http://www.w3.org/2000/svg"
 width="220.000000pt" height="220.000000pt" viewBox="0 0 220.000000 220.000000"
 preserveAspectRatio="xMidYMid meet">
<metadata>
Created by potrace 1.11, written by Peter Selinger 2001-2013
</metadata>
<g transform="translate(0.000000,220.000000) scale(0.100000,-0.100000)"
fill="#000000" stroke="none">
<path d="M0 1100 l0 -1100 1100 0 1100 0 0 1100 0 1100 -1100 0 -1100 0 0
-1100z m865 309 c144 -40 164 -246 30 -314 -22 -11 -42 -21 -44 -23 -3 -1 5
-9 16 -17 21 -15 52 -59 142 -203 l52 -83 -48 3 -47 3 -63 104 c-74 124 -97
149 -149 161 -89 21 -84 28 -84 -130 l0 -140 -40 0 -40 0 0 325 0 325 118 0
c64 0 135 -5 157 -11z m677 -299 c65 -168 121 -313 124 -323 5 -16 0 -18 -37
-15 l-44 3 -31 85 -32 85 -140 3 -140 3 -12 -38 c-7 -21 -21 -62 -32 -90 -19
-52 -20 -53 -59 -53 -21 0 -39 3 -39 8 0 4 55 150 121 325 l122 318 41 -3 40
-3 118 -305z"/>
<path d="M670 1230 l0 -120 48 0 c142 1 219 76 178 174 -20 49 -59 66 -151 66
l-75 0 0 -120z"/>
<path d="M1380 1330 c0 -5 -87 -246 -105 -292 -7 -17 2 -18 104 -18 61 0 111
3 111 8 0 4 -10 32 -21 62 -12 30 -36 98 -55 150 -18 52 -34 93 -34 90z"/>
</g>
</svg>
